<svg width="42" height="42" viewBox="0 0 42 42" fill="none" xmlns="http://www.w3.org/2000/svg">
<g clip-path="url(#clip0_266_658)">
<rect width="42" height="42" rx="8" fill="#27535C"/>
<path d="M14.0122 64.9993C11.9681 65.0002 9.94867 64.5253 8.09554 63.6077C6.24241 62.6902 4.60054 61.3524 3.28519 59.6882C1.96984 58.024 1.01289 56.0737 0.481529 53.9743C-0.0498368 51.8749 -0.142745 49.6772 0.209328 47.5355L5.87064 13.3866C6.36249 10.4198 7.94225 7.78224 10.2624 6.05428C12.5825 4.32632 15.453 3.64947 18.2423 4.17263C21.0316 4.6958 23.5113 6.37611 25.1359 8.84393C26.7604 11.3117 27.3968 14.3649 26.9049 17.3318L25.1036 28.1964C24.533 31.6184 22.7093 34.6599 20.0328 36.6533C17.3563 38.6467 14.0455 39.4292 10.8272 38.8291L11.7081 33.514C13.6013 33.8666 15.5487 33.4061 17.1231 32.2335C18.6976 31.0609 19.7705 29.2719 20.1065 27.259L21.9075 16.3945C22.0437 15.6198 22.0341 14.8241 21.8793 14.0534C21.7245 13.2828 21.4276 12.5524 21.0058 11.9045C20.5839 11.2566 20.0455 10.7042 19.4216 10.2791C18.7978 9.85395 18.1008 9.56462 17.3712 9.42781C16.6415 9.291 15.8936 9.30942 15.1707 9.48202C14.4478 9.65461 13.7642 9.97795 13.1595 10.4333C12.5548 10.8887 12.041 11.4671 11.6478 12.135C11.2546 12.803 10.9898 13.5472 10.8687 14.3247L5.20771 48.4736C5.00449 49.6994 5.03027 50.9559 5.28356 52.1712C5.53686 53.3864 6.01272 54.5367 6.68397 55.5564C7.35522 56.5761 8.20872 57.4451 9.19574 58.114C10.1828 58.7828 11.284 59.2383 12.4365 59.4544C13.589 59.6706 14.7702 59.6432 15.9128 59.3738C17.0553 59.1043 18.1368 58.5982 19.0955 57.8842C20.0541 57.1702 20.8711 56.2624 21.4999 55.2126C22.1287 54.1627 22.557 52.9914 22.7602 51.7656L27.003 26.1725L32 27.1102L27.7573 52.7033C27.1863 56.1421 25.4968 59.2579 22.9844 61.5058C20.472 63.7537 17.2966 64.9905 14.0135 65" fill="#FFBC4A"/>
</g>
<defs>
<clipPath id="clip0_266_658">
<rect width="42" height="42" rx="8" fill="white"/>
</clipPath>
</defs>
</svg>
