<svg width="118" height="32" viewBox="0 0 118 32" fill="none" xmlns="http://www.w3.org/2000/svg">
<path d="M6.2182 4.06104H3.08707V8.56723H0V11.0908H3.08707V18.4059C3.08707 19.2871 3.09953 20.0757 3.12444 20.7717C3.15469 21.489 3.34589 22.19 3.68368 22.8221C4.05427 23.5571 4.66523 24.1408 5.41347 24.4747C6.23704 24.838 7.12434 25.0321 8.02335 25.0455C9.02395 25.0731 10.0245 24.9874 11.0061 24.7899V22.1311C10.0963 22.2768 9.17225 22.3096 8.25458 22.2287C7.474 22.1437 6.90479 21.7907 6.54697 21.1697C6.34682 20.7958 6.2418 20.3777 6.2413 19.9529C6.22641 19.4722 6.21896 18.9064 6.21896 18.2555V11.0908H11.0061V8.56723H6.2182V4.06104Z" fill="#1D9E75"/>
<path d="M24.412 9.26455C23.2586 8.49824 21.8617 8.11513 20.2213 8.11523C18.6504 8.11523 17.2735 8.47074 16.0904 9.18176C14.9001 9.90054 13.9399 10.9485 13.3239 12.2011C12.6627 13.503 12.3322 15.0401 12.3323 16.8124C12.3323 18.4848 12.6678 19.9544 13.3389 21.2211C13.9805 22.457 14.9581 23.4835 16.1574 24.1805C17.3654 24.8864 18.7697 25.2394 20.3704 25.2395C21.871 25.2567 23.3455 24.8427 24.6209 24.046C25.8955 23.2473 26.8912 22.0682 27.4691 20.6727L24.4117 19.6965C24.0528 20.4832 23.4753 21.1484 22.749 21.6115C21.9863 22.0712 21.1096 22.303 20.221 22.2799C18.7396 22.2799 17.6062 21.7917 16.8208 20.8155C16.1715 20.0082 15.7951 18.9213 15.6823 17.5633H27.6777C27.797 15.6207 27.5709 13.9433 26.9992 12.5313C26.4276 11.1193 25.5651 10.0303 24.4117 9.26439M16.8211 12.3813C17.6065 11.3899 18.7797 10.8942 20.3407 10.8942C21.7522 10.8942 22.8036 11.3448 23.495 12.2461C24.0149 12.9244 24.3448 13.8807 24.4846 15.1151H15.749C15.9138 13.9879 16.2711 13.0767 16.821 12.3813" fill="#1D9E75"/>
<path d="M43.5338 12.0067C43.2828 11.3116 42.9173 10.6641 42.4526 10.0915C41.9529 9.48442 41.3232 8.99913 40.6108 8.67196C39.8551 8.31145 38.9205 8.13125 37.8071 8.13135C36.3553 8.13135 35.1175 8.44682 34.0936 9.07776C33.4761 9.45634 32.9307 9.9431 32.4832 10.515V8.56684H29.6941V24.7895H32.8556V16.3476C32.8373 15.5198 32.9455 14.694 33.1765 13.8993C33.3502 13.3011 33.6503 12.7478 34.0563 12.2773C34.4133 11.8777 34.861 11.5711 35.3613 11.3836C35.8675 11.1967 36.4029 11.1026 36.942 11.1057C37.797 11.1057 38.4904 11.2809 39.0225 11.6315C39.5481 11.9751 39.9749 12.4517 40.2603 13.0135C40.5571 13.5954 40.7586 14.2219 40.8569 14.8685C40.9595 15.5119 41.0119 16.1623 41.0136 16.8138V24.79H44.1754V15.7773C44.1691 15.1941 44.1243 14.612 44.0411 14.0349C43.9438 13.3428 43.7738 12.6631 43.5341 12.0071" fill="#1D9E75"/>
<path d="M57.9032 9.67593C57.7297 9.51875 57.548 9.37103 57.3588 9.23341C56.3198 8.4876 55.0397 8.11455 53.5185 8.11424C52.0072 8.11424 50.7023 8.4873 49.6038 9.23341C48.4929 9.99395 47.6127 11.0494 47.0607 12.2829C46.4458 13.6581 46.1402 15.1533 46.1661 16.6613C46.1423 18.1685 46.4451 19.6628 47.0533 21.04C47.5966 22.2782 48.4688 23.3412 49.5737 24.1119C50.6625 24.8629 51.9575 25.2384 53.4587 25.2384C54.9997 25.2384 56.2922 24.8603 57.3363 24.1042C57.6689 23.862 57.9784 23.5893 58.2609 23.2895V24.7884H61.0348V3.15771H57.9032V9.67593ZM57.8137 19.6355C57.5554 20.4399 57.0615 21.1468 56.3969 21.6633C55.7504 22.1541 54.9152 22.3995 53.8913 22.3995C52.897 22.3995 52.0742 22.1441 51.4231 21.6333C50.753 21.0966 50.2466 20.3807 49.9617 19.5676C49.6272 18.6361 49.463 17.6514 49.4769 16.661C49.4634 15.678 49.6277 14.7008 49.9617 13.7771C50.2508 12.9624 50.7657 12.2482 51.4454 11.7192C52.1114 11.2085 52.9615 10.9532 53.9957 10.9532C54.9697 10.9532 55.7726 11.1935 56.4043 11.6742C57.0601 12.1896 57.5483 12.8904 57.8062 13.687C58.1246 14.6451 58.2785 15.6508 58.2611 16.661C58.2784 17.6706 58.1272 18.676 57.8137 19.6352" fill="#1D9E75"/>
<path d="M86.8149 8.48295C86.2899 8.51768 85.7714 8.61864 85.2715 8.78347C84.7827 8.9418 84.3221 9.17755 83.9069 9.48184C83.4794 9.77202 83.1058 10.1355 82.8032 10.5559C82.6618 10.7507 82.5324 10.954 82.4155 11.1646V8.56512H79.6414V24.7881H82.7883V16.6017C82.7854 15.988 82.8504 15.3759 82.9821 14.7767C83.1032 14.221 83.3176 13.6902 83.616 13.2072C83.9432 12.699 84.38 12.2717 84.8938 11.957C85.4076 11.6423 85.9853 11.4483 86.5838 11.3895C87.1704 11.3256 87.7635 11.3664 88.3361 11.5099V8.56512C87.8343 8.47434 87.3234 8.44658 86.8149 8.48249" fill="#1D9E75"/>
<path d="M96.8205 2.75217C96.3218 2.78596 95.8313 2.89746 95.3665 3.08269C94.8507 3.29316 94.3909 3.62236 94.0241 4.04394C93.697 4.40549 93.4504 4.8333 93.3009 5.29868C93.1581 5.74681 93.0705 6.21092 93.0401 6.68058C93.0103 7.14616 92.9951 7.58424 92.9945 7.99484V8.56559H90.3257V11.0893H92.9951V24.7883H96.1121V11.0887H100.184V8.56498H96.1121V7.39348C96.1121 6.72266 96.2936 6.20444 96.6565 5.83883C97.0194 5.47322 97.5686 5.29047 98.3042 5.29057H100.183V2.70703H98.1561C97.7482 2.70703 97.3033 2.72208 96.8211 2.75217" fill="#1D9E75"/>
<path d="M114.732 8.56738L110.187 20.7604L105.425 8.56738H102.174L108.692 24.7203L106.037 31.9999H109.005L117.893 8.56738H114.732Z" fill="#1D9E75"/>
<path d="M69.4326 26.4083C68.4981 26.4088 67.5748 26.2031 66.7276 25.8059C65.8803 25.4087 65.1297 24.8295 64.5283 24.109C63.927 23.3885 63.4895 22.5442 63.2465 21.6353C63.0036 20.7264 62.9611 19.775 63.1221 18.8478L65.7104 4.06374C65.9353 2.7793 66.6575 1.63744 67.7183 0.889357C68.779 0.141274 70.0914 -0.151753 71.3666 0.0747382C72.6419 0.30123 73.7756 1.02869 74.5183 2.09708C75.261 3.16547 75.552 4.48727 75.3271 5.77171L74.5035 10.4753C74.2427 11.9568 73.4089 13.2735 72.1852 14.1365C70.9615 14.9996 69.4479 15.3383 67.9765 15.0785L68.3792 12.7774C69.2448 12.9301 70.1351 12.7307 70.8549 12.2231C71.5748 11.7154 72.0653 10.9409 72.2189 10.0695L73.0423 5.36591C73.1046 5.03055 73.1002 4.68607 73.0294 4.35242C72.9587 4.01877 72.8229 3.70256 72.6301 3.42209C72.4372 3.14161 72.191 2.90244 71.9058 2.71839C71.6206 2.53435 71.3019 2.40908 70.9683 2.34985C70.6347 2.29063 70.2928 2.2986 69.9623 2.37332C69.6318 2.44804 69.3192 2.58802 69.0428 2.78517C68.7663 2.98232 68.5314 3.23272 68.3516 3.52189C68.1719 3.81105 68.0508 4.13325 67.9955 4.46985L65.4073 19.2539C65.3144 19.7846 65.3262 20.3286 65.442 20.8547C65.5578 21.3808 65.7753 21.8788 66.0822 22.3203C66.3891 22.7617 66.7793 23.1379 67.2306 23.4275C67.6818 23.717 68.1853 23.9142 68.7122 24.0078C69.2391 24.1014 69.7792 24.0895 70.3016 23.9729C70.8239 23.8563 71.3184 23.6371 71.7567 23.328C72.195 23.0189 72.5685 22.6259 72.856 22.1714C73.1435 21.7169 73.3393 21.2098 73.4322 20.6791L75.3719 9.59913L77.6565 10.0051L75.7168 21.085C75.4557 22.5738 74.6833 23.9227 73.5347 24.8959C72.386 25.8691 70.9342 26.4046 69.4333 26.4087" fill="#FFBC4A"/>
</svg>
