<svg width="32" height="32" viewBox="0 0 32 32" fill="none" xmlns="http://www.w3.org/2000/svg">
<path d="M14.8862 31.998C13.731 31.9974 12.5901 31.7469 11.544 31.2643C10.4979 30.7816 9.57213 30.0786 8.83206 29.2048C8.092 28.3311 7.55569 27.3079 7.26103 26.2076C6.96637 25.1073 6.92054 23.9566 7.12677 22.8369L10.3089 4.92266C10.4433 4.15274 10.7309 3.41658 11.155 2.75649C11.5792 2.0964 12.1315 1.52538 12.7804 1.07626C13.4257 0.627867 14.1549 0.309923 14.9257 0.1408C15.6965 -0.0283222 16.4937 -0.0452697 17.2712 0.090938C18.0488 0.227146 18.7912 0.513807 19.4555 0.934355C20.1199 1.3549 20.6931 1.901 21.142 2.54108C21.5968 3.18238 21.9187 3.90578 22.0892 4.66984C22.2597 5.4339 22.2755 6.2236 22.1356 6.99368L21.1213 12.6935C20.9667 13.5791 20.6364 14.4261 20.1493 15.1859C19.6621 15.9456 19.0277 16.6033 18.2823 17.1213C17.5368 17.6393 16.6951 18.0074 15.8051 18.2046C14.9151 18.4018 13.9944 18.4242 13.0956 18.2705L13.5909 15.483C14.6584 15.6648 15.7556 15.4214 16.641 14.8064C17.5264 14.1914 18.1276 13.2552 18.3124 12.2035L19.3252 6.50425C19.4727 5.68853 19.2853 4.84851 18.8042 4.16888C18.4475 3.66351 17.9462 3.27421 17.364 3.05062C16.7819 2.82703 16.1454 2.77927 15.5356 2.91343C14.9258 3.0476 14.3704 3.3576 13.9402 3.80393C13.5099 4.25026 13.2243 4.8127 13.1198 5.41954L9.93769 23.3338C9.70534 24.6281 10.0023 25.9604 10.7637 27.0398C11.5251 28.1192 12.6891 28.8579 14.0015 29.0947C14.65 29.209 15.3152 29.1948 15.958 29.0528C16.6009 28.9108 17.2086 28.644 17.7455 28.2679C18.2867 27.893 18.7474 27.4165 19.101 26.8656C19.4546 26.3147 19.6942 25.7004 19.8059 25.058L22.1911 11.6331L25 12.1245L22.6148 25.5494C22.4393 26.5575 22.0635 27.5214 21.5087 28.3859C20.954 29.2504 20.2313 29.9984 19.3822 30.5869C18.0694 31.505 16.4996 31.9988 14.8897 32L14.8862 31.998Z" fill="#FFBC4A"/>
</svg>
