<svg width="54" height="46" viewBox="0 0 54 46" fill="none" xmlns="http://www.w3.org/2000/svg">
<path d="M19.4733 37.6656C19.4733 37.6656 19.3773 38.8923 19.5557 39.4363C20.6664 42.8398 23.11 43.2443 26.3207 43.4857C30.202 43.7776 34.6294 41.1337 34.6131 38.6146C34.588 34.8884 20.4156 36.0841 20.4156 36.0841L19.4733 37.6656Z" fill="#5C647C" stroke="#222222" stroke-width="1.63393" stroke-miterlimit="10"/>
<path d="M16.3917 9.29556C16.3917 9.29556 10.6198 15.265 11.3447 20.6245C12.0709 25.9841 8.10191 25.497 13.8362 33.1719C13.8362 33.1719 15.0939 39.8714 39.5299 37.5573C39.5299 37.5573 44.9739 34.2676 44.3683 26.5939C43.764 18.919 44.8068 13.438 37.0271 7.22562C34.513 5.21768 30.2362 5.66938 27.3414 5.63268C21.2792 5.5555 16.8604 7.48247 16.3917 9.29682V9.29556Z" fill="#5C647C" stroke="#222222" stroke-width="1.63393" stroke-miterlimit="10" stroke-linejoin="round"/>
<path d="M13.7567 31.7188C13.7567 31.7188 13.6597 36.3286 15.3272 38.3613C16.5208 39.8163 19.7091 41.6604 21.4002 41.0733C23.3054 40.4119 25.4396 39.2678 25.9999 37.1852" fill="#5C647C"/>
<path d="M26.0696 37.2228C26.4176 38.2439 27.6401 41.0749 32.2255 41.0749C35.1158 41.0749 37.2152 40.9313 38.0683 38.4881C38.5101 37.2228 38.7594 36.2107 39.1991 35.2617" fill="#5C647C"/>
<path d="M16.2386 39.2431C15.2268 38.2163 14.6031 36.7871 14.2429 35.3887C13.7464 33.4607 15.2092 31.7659 16.9112 30.7332C18.8204 29.5747 20.2842 27.977 21.3477 26.4277C22.3128 25.0217 23.8272 24.0107 25.5325 24.0107H27.2762C29.27 24.0107 31.0475 25.3739 32.2349 26.9756C33.5221 28.712 35.3443 30.4799 37.0386 31.9825C38.2058 33.0177 38.792 34.5668 38.5387 36.1062L38.3469 37.2716C38.2073 38.1204 37.7749 38.8936 37.1248 39.457C36.5529 39.9526 35.8423 40.2601 35.0896 40.3375L34.9415 40.3528C33.1682 40.5353 31.4761 39.5663 30.7361 37.9445L29.4199 35.0601C29.1575 34.4852 29.0218 33.8607 29.0218 33.2287V30.9672C29.0218 30.4381 28.9413 29.8613 28.4825 29.5979C27.0229 28.7602 23.3463 29.1048 23.1166 30.1672C22.6498 32.3264 23.2491 31.9196 22.8498 33.2778C22.7821 33.5079 22.6828 33.7286 22.5695 33.94L20.4489 37.8986C19.5634 39.5514 17.5547 40.5787 16.2386 39.2431Z" fill="#8F97AE"/>
<path fill-rule="evenodd" clip-rule="evenodd" d="M13.7698 31.0861C14.1166 31.0935 14.3918 31.3825 14.3845 31.7317C14.3845 31.7318 14.3845 31.7319 14.3845 31.732L13.7565 31.7186L13.1284 31.7052C13.1357 31.3559 13.4229 31.0787 13.7698 31.0861ZM13.7565 31.7186C13.1284 31.7052 13.1284 31.7053 13.1284 31.7054L13.1284 31.7069L13.1283 31.7104L13.1281 31.7222C13.1279 31.7323 13.1278 31.7467 13.1276 31.7652C13.1273 31.8022 13.127 31.8555 13.1273 31.9236C13.128 32.0596 13.1308 32.2544 13.1396 32.4939C13.1571 32.972 13.1983 33.6323 13.2936 34.3603C13.4791 35.7771 13.8864 37.5983 14.8427 38.764C15.5114 39.5792 16.6871 40.4541 17.9012 41.0513C18.5137 41.3526 19.1596 41.5952 19.781 41.7217C20.3949 41.8467 21.0357 41.8687 21.6047 41.6712C23.5182 41.007 25.9544 39.7726 26.6061 37.3505C26.6968 37.0133 26.4989 36.6658 26.164 36.5744C25.8292 36.4831 25.4841 36.6824 25.3934 37.0196C24.9244 38.7626 23.0923 39.8165 21.1953 40.475C20.9187 40.5711 20.5268 40.5827 20.03 40.4816C19.5406 40.382 18.9978 40.1827 18.4527 39.9145C17.3514 39.3727 16.3362 38.598 15.8113 37.9582C15.1 37.0911 14.7221 35.5911 14.5392 34.1948C14.4504 33.5162 14.4116 32.8971 14.3951 32.4473C14.3869 32.2229 14.3843 32.0417 14.3837 31.9176C14.3835 31.8556 14.3837 31.808 14.384 31.7765C14.3841 31.7607 14.3843 31.749 14.3844 31.7415L14.3845 31.7334L14.3845 31.732" fill="#222222"/>
<path fill-rule="evenodd" clip-rule="evenodd" d="M39.4642 34.6884C39.7786 34.8362 39.9146 35.2126 39.7678 35.5292C39.4965 36.1147 39.3108 36.6991 39.0894 37.3958C38.9649 37.7876 38.8291 38.2149 38.6604 38.6979C38.1683 40.1075 37.2832 40.8941 36.1133 41.2963C35.0058 41.6771 33.653 41.7074 32.225 41.7074C29.7918 41.7074 28.186 40.9514 27.1379 40.0021C26.1022 39.064 25.6649 37.9858 25.4749 37.4282C25.3622 37.0977 25.5369 36.7379 25.8651 36.6244C26.1933 36.511 26.5506 36.687 26.6632 37.0174C26.8212 37.4808 27.1692 38.3287 27.9781 39.0614C28.7746 39.7828 30.0727 40.4422 32.225 40.4422C33.6872 40.4422 34.8293 40.4008 35.7074 40.0989C36.5231 39.8185 37.1142 39.3118 37.4752 38.2782C37.614 37.8807 37.738 37.4918 37.8588 37.1133C38.0991 36.3601 38.3261 35.6485 38.6293 34.9942C38.776 34.6775 39.1498 34.5407 39.4642 34.6884Z" fill="#222222"/>
<path d="M22.3 34.1863C22.9031 35.0682 23.9927 36.0579 25.6135 36.6463C26.1513 36.8411 26.7493 36.7817 27.2456 36.4957C27.9316 36.0997 29.1375 35.0568 29.9014 33.9333C29.5244 32.8578 29.2226 32.8752 28.7078 31.9089C27.6009 31.4888 25.9236 31.2471 23.5276 31.8266C22.8777 32.8752 22.6142 33.0476 22.3 34.1863Z" fill="#222222" stroke="#222222" stroke-width="1.63393" stroke-miterlimit="10"/>
<path d="M11.8398 16.5589L8.5631 13.559L6.02263 15.7517C2.99844 15.0204 2.6999 10.2726 3.48216 9.1737C4.26443 8.07483 12.0602 2.74438 15.4583 2.74121C18.8564 2.73804 21.3577 7.0462 21.3577 7.0462" fill="#5C647C"/>
<path d="M11.8398 16.5589L8.5631 13.559L6.02263 15.7517C2.99844 15.0204 2.6999 10.2726 3.48216 9.1737C4.26443 8.07483 12.0602 2.74438 15.4583 2.74121C18.8564 2.73804 21.3577 7.0462 21.3577 7.0462" stroke="#222222" stroke-width="1.63393" stroke-miterlimit="10" stroke-linecap="round"/>
<path d="M43.4417 16.6398L46.5312 12.6454L49.4348 14.6559L50.886 6.85945C50.2553 6.53999 44.1327 4.5428 41.4503 2.74109C39.2415 1.25823 33.7334 6.85945 33.7334 6.85945" fill="#5C647C"/>
<path d="M42.7955 16.1399C42.5194 16.4968 42.585 17.0099 42.9419 17.286C43.2988 17.562 43.8119 17.4965 44.0879 17.1396L43.4417 16.6398L42.7955 16.1399ZM46.5312 12.6454L46.9963 11.9737L45.885 12.1456L46.5312 12.6454ZM49.4348 14.6559L48.9697 15.3275L50.238 14.8054L49.4348 14.6559ZM50.886 6.85945L51.6891 7.00895C51.7555 6.65229 51.5788 6.29458 51.2551 6.13065L50.886 6.85945ZM41.4503 2.74109L41.9058 2.0629L41.9057 2.06281L41.4503 2.74109ZM43.4417 16.6398L44.0879 17.1396L47.1775 13.1452L46.5312 12.6454L45.885 12.1456L42.7955 16.1399L43.4417 16.6398ZM46.5312 12.6454L46.0662 13.3171L48.9697 15.3275L49.4348 14.6559L49.8999 13.9842L46.9963 11.9737L46.5312 12.6454ZM49.4348 14.6559L50.238 14.8054L51.6891 7.00895L50.886 6.85945L50.0828 6.70996L48.6316 14.5064L49.4348 14.6559ZM50.886 6.85945L51.2551 6.13065C51.0423 6.02288 50.471 5.81392 49.8059 5.56821C49.1012 5.30785 48.2001 4.97457 47.2364 4.59578C45.2857 3.829 43.1635 2.90765 41.9058 2.0629L41.4503 2.74109L40.9948 3.41928C42.4195 4.37624 44.6998 5.35433 46.6387 6.11644C47.6198 6.50209 48.5352 6.84062 49.2397 7.10088C49.5936 7.23166 49.8905 7.34125 50.1188 7.42818C50.2329 7.47161 50.3257 7.50781 50.3976 7.53705C50.4334 7.55162 50.4617 7.56355 50.4834 7.57305C50.4942 7.57775 50.5024 7.58147 50.5084 7.58427C50.5146 7.58715 50.5172 7.58843 50.5168 7.58826L50.886 6.85945ZM41.4503 2.74109L41.9057 2.06281C41.0071 1.45958 39.9086 1.6561 39.0206 1.99603C38.0931 2.35112 37.1287 2.96194 36.2797 3.5859C35.4224 4.21603 34.6418 4.89011 34.0783 5.40354C33.7957 5.66104 33.5657 5.87996 33.4056 6.03523C33.3255 6.11291 33.2628 6.17476 33.2197 6.21768C33.1981 6.23914 33.1814 6.25588 33.1698 6.2675C33.1641 6.27331 33.1596 6.27784 33.1564 6.28104C33.1548 6.28265 33.1536 6.28392 33.1527 6.28485C33.1522 6.28532 33.1518 6.2857 33.1515 6.286C33.1514 6.28615 33.1512 6.28631 33.1511 6.28638C33.151 6.28652 33.1509 6.28663 33.7334 6.85945C34.3159 7.43227 34.3158 7.43235 34.3158 7.4324C34.3158 7.43239 34.3158 7.43242 34.3158 7.4324C34.3158 7.43235 34.3159 7.43223 34.3162 7.43202C34.3166 7.43159 34.3173 7.43084 34.3184 7.42975C34.3205 7.42759 34.324 7.42411 34.3287 7.41937C34.3381 7.40988 34.3526 7.39534 34.3719 7.37614C34.4105 7.33774 34.4683 7.2807 34.5432 7.20811C34.6929 7.06286 34.9105 6.85576 35.1788 6.61132C35.7171 6.12086 36.4516 5.48731 37.2474 4.9025C38.0515 4.31151 38.8784 3.80006 39.6048 3.52197C40.3708 3.22872 40.7891 3.28117 40.9949 3.41938L41.4503 2.74109Z" fill="#222222"/>
<path d="M8.56351 13.56L12.7637 7.9967C13.8153 6.60367 15.6861 6.13047 17.2667 6.85925L17.6022 7.01361C18.0834 7.23502 18.2392 7.84614 17.9251 8.27379L11.839 16.5599L8.56226 13.56H8.56351Z" fill="#222222" stroke="#222222" stroke-width="1.63393" stroke-miterlimit="10" stroke-linejoin="round"/>
<path d="M46.5459 12.6465L42.5166 7.9967C41.465 6.60367 39.5942 6.13047 38.0136 6.85925L37.6781 7.01361C37.1969 7.23502 37.0411 7.84614 37.3552 8.27379L43.4413 16.5599L46.5459 12.6465Z" fill="#222222" stroke="#222222" stroke-width="1.63393" stroke-miterlimit="10"/>
<path d="M17.6574 24.1903C18.581 24.1903 19.3297 23.4364 19.3297 22.5063C19.3297 21.5762 18.581 20.8223 17.6574 20.8223C16.7338 20.8223 15.9851 21.5762 15.9851 22.5063C15.9851 23.4364 16.7338 24.1903 17.6574 24.1903Z" fill="#222222"/>
<path d="M34.5959 24.1903C35.5195 24.1903 36.2682 23.4364 36.2682 22.5063C36.2682 21.5762 35.5195 20.8223 34.5959 20.8223C33.6723 20.8223 32.9236 21.5762 32.9236 22.5063C32.9236 23.4364 33.6723 24.1903 34.5959 24.1903Z" fill="#222222"/>
</svg>
