<svg width="56" height="56" viewBox="0 0 56 56" fill="none" xmlns="http://www.w3.org/2000/svg">
<path d="M22.0315 39.6865C22.0315 39.6865 21.9552 40.6614 22.097 41.0939C22.9798 43.7991 24.9221 44.1206 27.4741 44.3125C30.559 44.5445 34.0781 42.443 34.0651 40.4407C34.0451 37.4791 22.7805 38.4294 22.7805 38.4294L22.0315 39.6865Z" fill="#5C647C" stroke="#222222" stroke-width="1.2987" stroke-miterlimit="10"/>
<path d="M19.5826 17.1368C19.5826 17.1368 14.9948 21.8815 15.571 26.1414C16.1483 30.4014 12.9936 30.0142 17.5514 36.1145C17.5514 36.1145 18.551 41.4395 37.9736 39.6001C37.9736 39.6001 42.3007 36.9854 41.8193 30.8861C41.339 24.7858 42.1679 20.4293 35.9843 15.4915C33.986 13.8955 30.5866 14.2545 28.2857 14.2254C23.4673 14.164 19.9551 15.6957 19.5826 17.1378V17.1368Z" fill="#5C647C" stroke="#222222" stroke-width="1.2987" stroke-miterlimit="10" stroke-linejoin="round"/>
<path d="M17.488 34.9595C17.488 34.9595 17.411 38.6235 18.7363 40.2392C19.685 41.3957 22.2192 42.8614 23.5634 42.3948C25.0777 41.8691 26.774 40.9597 27.2194 39.3044" fill="#5C647C"/>
<path d="M27.2745 39.3342C27.5512 40.1457 28.5228 42.3959 32.1675 42.3959C34.4648 42.3959 36.1335 42.2817 36.8116 40.3398C37.1627 39.3342 37.3608 38.5296 37.7103 37.7754" fill="#5C647C"/>
<path d="M19.4606 40.9402C18.6564 40.1241 18.1607 38.9881 17.8744 37.8766C17.4797 36.3442 18.6425 34.9971 19.9953 34.1762C21.5128 33.2554 22.6763 31.9855 23.5215 30.7541C24.2886 29.6365 25.4923 28.833 26.8478 28.833H28.2337C29.8184 28.833 31.2312 29.9165 32.175 31.1896C33.1982 32.5697 34.6465 33.9749 35.9932 35.1692C36.9209 35.9921 37.3869 37.2233 37.1855 38.4469L37.0331 39.3732C36.9221 40.0479 36.5784 40.6624 36.0617 41.1102C35.6072 41.5042 35.0424 41.7485 34.4441 41.8101L34.3264 41.8222C32.9169 41.9673 31.572 41.1971 30.9837 39.9081L29.9376 37.6154C29.7291 37.1585 29.6212 36.6621 29.6212 36.1598V34.3622C29.6212 33.9417 29.5572 33.4832 29.1925 33.2739C28.0324 32.608 25.1101 32.8819 24.9276 33.7263C24.5565 35.4426 25.0328 35.1193 24.7154 36.1988C24.6617 36.3817 24.5827 36.5571 24.4927 36.7251L22.8071 39.8715C22.1033 41.1853 20.5067 42.0018 19.4606 40.9402Z" fill="#8F97AE"/>
<path fill-rule="evenodd" clip-rule="evenodd" d="M17.4983 34.4571C17.7739 34.463 17.9927 34.6928 17.9869 34.9703C17.9869 34.9704 17.9869 34.9705 17.9869 34.9705L17.4877 34.9599L16.9885 34.9492C16.9943 34.6716 17.2226 34.4513 17.4983 34.4571ZM17.4877 34.9599C16.9885 34.9492 16.9885 34.9493 16.9885 34.9494L16.9885 34.9506L16.9884 34.9534L16.9883 34.9628C16.9881 34.9708 16.988 34.9822 16.9879 34.9969C16.9876 35.0263 16.9874 35.0687 16.9877 35.1228C16.9882 35.2309 16.9904 35.3858 16.9974 35.5761C17.0113 35.9561 17.044 36.481 17.1198 37.0596C17.2673 38.1857 17.591 39.6333 18.351 40.5598C18.8826 41.2077 19.8171 41.9031 20.7821 42.3778C21.2689 42.6174 21.7823 42.8102 22.2762 42.9107C22.7642 43.0101 23.2735 43.0276 23.7258 42.8706C25.2466 42.3426 27.183 41.3615 27.701 39.4363C27.7731 39.1683 27.6158 38.8921 27.3497 38.8195C27.0835 38.7468 26.8093 38.9053 26.7371 39.1733C26.3644 40.5587 24.9081 41.3964 23.4003 41.9198C23.1805 41.9961 22.869 42.0054 22.4741 41.925C22.0852 41.8458 21.6537 41.6874 21.2204 41.4742C20.3451 41.0436 19.5382 40.4279 19.121 39.9193C18.5556 39.2302 18.2552 38.0379 18.1099 36.9281C18.0392 36.3887 18.0084 35.8966 17.9954 35.5391C17.9888 35.3607 17.9868 35.2167 17.9863 35.1181C17.9861 35.0688 17.9862 35.031 17.9865 35.0059C17.9866 34.9933 17.9867 34.984 17.9868 34.9781L17.9869 34.9717L17.9869 34.9705" fill="#222222"/>
<path fill-rule="evenodd" clip-rule="evenodd" d="M37.9214 37.3198C38.1713 37.4372 38.2794 37.7364 38.1628 37.988C37.9471 38.4534 37.7995 38.9179 37.6235 39.4717C37.5245 39.7831 37.4166 40.1227 37.2825 40.5066C36.8913 41.627 36.1878 42.2523 35.258 42.572C34.3777 42.8746 33.3025 42.8987 32.1674 42.8987C30.2335 42.8987 28.9571 42.2978 28.124 41.5432C27.3009 40.7976 26.9533 39.9407 26.8022 39.4974C26.7127 39.2348 26.8515 38.9487 27.1124 38.8586C27.3732 38.7684 27.6572 38.9083 27.7468 39.1709C27.8723 39.5393 28.1489 40.2131 28.7919 40.7955C29.4249 41.3689 30.4567 41.8931 32.1674 41.8931C33.3296 41.8931 34.2374 41.8602 34.9353 41.6202C35.5837 41.3973 36.0536 40.9946 36.3405 40.173C36.4508 39.8571 36.5494 39.5479 36.6454 39.2471C36.8364 38.6485 37.0168 38.0828 37.2578 37.5628C37.3744 37.3111 37.6715 37.2023 37.9214 37.3198Z" fill="#222222"/>
<path d="M24.2784 36.9208C24.7578 37.6218 25.6238 38.4085 26.9121 38.8761C27.3395 39.031 27.8149 38.9837 28.2093 38.7564C28.7546 38.4417 29.713 37.6127 30.3202 36.7197C30.0206 35.8649 29.7807 35.8787 29.3715 35.1106C28.4917 34.7768 27.1585 34.5847 25.2541 35.0453C24.7376 35.8787 24.5281 36.0157 24.2784 36.9208Z" fill="#222222" stroke="#222222" stroke-width="1.2987" stroke-miterlimit="10"/>
<path d="M15.9646 22.9105L13.3601 20.5261L11.3409 22.2689C8.93712 21.6876 8.69983 17.9139 9.3216 17.0405C9.94337 16.1671 16.1397 11.9303 18.8406 11.9277C21.5416 11.9252 23.5297 15.3495 23.5297 15.3495" fill="#5C647C"/>
<path d="M15.9646 22.9105L13.3601 20.5261L11.3409 22.2689C8.93712 21.6876 8.69983 17.9139 9.3216 17.0405C9.94337 16.1671 16.1397 11.9303 18.8406 11.9277C21.5416 11.9252 23.5297 15.3495 23.5297 15.3495" stroke="#222222" stroke-width="1.2987" stroke-miterlimit="10" stroke-linecap="round"/>
<path d="M41.0828 22.9748L43.5385 19.7999L45.8463 21.3979L46.9998 15.201C46.4985 14.9471 41.6321 13.3597 39.5 11.9276C37.7444 10.749 33.3663 15.201 33.3663 15.201" fill="#5C647C"/>
<path d="M40.5692 22.5775C40.3498 22.8612 40.4019 23.269 40.6855 23.4884C40.9692 23.7078 41.3771 23.6557 41.5965 23.372L40.5692 22.5775ZM43.5385 19.7999L43.9081 19.266L43.0249 19.4026L43.5385 19.7999ZM45.8463 21.3979L45.4767 21.9318L46.4847 21.5167L45.8463 21.3979ZM46.9998 15.201L47.6382 15.3199C47.6909 15.0364 47.5504 14.752 47.2932 14.6218L46.9998 15.201ZM39.5 11.9276L39.862 11.3886L39.8619 11.3885L39.5 11.9276ZM41.5965 23.372L44.0521 20.1972L43.0249 19.4026L40.5692 22.5775L41.5965 23.372ZM43.1688 20.3338L45.4767 21.9318L46.216 20.864L43.9081 19.266L43.1688 20.3338ZM46.4847 21.5167L47.6382 15.3199L46.3614 15.0822L45.208 21.2791L46.4847 21.5167ZM47.2932 14.6218C47.1241 14.5361 46.6699 14.37 46.1413 14.1747C45.5812 13.9678 44.8649 13.7029 44.099 13.4018C42.5485 12.7923 40.8617 12.06 39.862 11.3886L39.1379 12.4667C40.2704 13.2273 42.0828 14.0047 43.6239 14.6105C44.4037 14.917 45.1313 15.1861 45.6912 15.3929C45.9726 15.4969 46.2085 15.584 46.39 15.6531C46.4807 15.6876 46.5545 15.7164 46.6116 15.7396C46.64 15.7512 46.6626 15.7607 46.6798 15.7682C46.6884 15.772 46.6949 15.7749 46.6997 15.7771C46.7046 15.7794 46.7066 15.7804 46.7064 15.7803L47.2932 14.6218ZM39.8619 11.3885C39.1478 10.909 38.2746 11.0652 37.5688 11.3354C36.8315 11.6177 36.0651 12.1032 35.3903 12.5991C34.7088 13.1 34.0884 13.6357 33.6405 14.0438C33.4159 14.2485 33.233 14.4225 33.1058 14.5459C33.0421 14.6076 32.9923 14.6568 32.958 14.6909C32.9409 14.708 32.9276 14.7213 32.9184 14.7305C32.9138 14.7351 32.9102 14.7387 32.9077 14.7413C32.9065 14.7426 32.9055 14.7436 32.9047 14.7443C32.9044 14.7447 32.9041 14.745 32.9038 14.7452C32.9037 14.7453 32.9036 14.7455 32.9035 14.7455C32.9034 14.7456 32.9033 14.7457 33.3663 15.201C33.8293 15.6563 33.8293 15.6564 33.8292 15.6564C33.8292 15.6564 33.8292 15.6564 33.8292 15.6564C33.8293 15.6564 33.8294 15.6563 33.8295 15.6561C33.8299 15.6558 33.8304 15.6552 33.8313 15.6543C33.833 15.6526 33.8357 15.6498 33.8395 15.6461C33.847 15.6385 33.8585 15.627 33.8739 15.6117C33.9045 15.5812 33.9505 15.5359 34.01 15.4782C34.129 15.3627 34.3019 15.1981 34.5152 15.0038C34.943 14.614 35.5269 14.1104 36.1594 13.6456C36.7985 13.1758 37.4557 12.7693 38.0331 12.5483C38.642 12.3152 38.9744 12.3569 39.138 12.4667L39.8619 11.3885Z" fill="#222222"/>
<path d="M13.36 20.5262L16.6985 16.1043C17.5343 14.9971 19.0213 14.6209 20.2776 15.2002L20.5442 15.3229C20.9267 15.4989 21.0505 15.9846 20.8009 16.3245L15.9635 22.9106L13.359 20.5262H13.36Z" fill="#222222" stroke="#222222" stroke-width="1.2987" stroke-miterlimit="10" stroke-linejoin="round"/>
<path d="M43.5501 19.8001L40.3475 16.1043C39.5116 14.9971 38.0246 14.6209 36.7683 15.2002L36.5017 15.3229C36.1192 15.4989 35.9954 15.9846 36.2451 16.3245L41.0825 22.9106L43.5501 19.8001Z" fill="#222222" stroke="#222222" stroke-width="1.2987" stroke-miterlimit="10"/>
<path d="M20.5882 28.9754C21.3223 28.9754 21.9174 28.3761 21.9174 27.6369C21.9174 26.8976 21.3223 26.2983 20.5882 26.2983C19.8541 26.2983 19.259 26.8976 19.259 27.6369C19.259 28.3761 19.8541 28.9754 20.5882 28.9754Z" fill="#222222"/>
<path d="M34.0517 28.9754C34.7858 28.9754 35.3809 28.3761 35.3809 27.6369C35.3809 26.8976 34.7858 26.2983 34.0517 26.2983C33.3176 26.2983 32.7225 26.8976 32.7225 27.6369C32.7225 28.3761 33.3176 28.9754 34.0517 28.9754Z" fill="#222222"/>
</svg>
